<?xml version="1.0" encoding="utf-8"?>
<!-- Generator: Adobe Illustrator 25.0.0, SVG Export Plug-In . SVG Version: 6.00 Build 0)  -->
<svg version="1.1" id="Layer_1" xmlns="http://www.w3.org/2000/svg" xmlns:xlink="http://www.w3.org/1999/xlink" x="0px" y="0px"
	 viewBox="0 0 24 24" style="enable-background:new 0 0 24 24;" xml:space="preserve">
<style type="text/css">
	.st0{fill:none;}
	.st1{fill:#0000A4;}
</style>
<g>
	<rect y="0" class="st0" width="24" height="24"/>
	<path class="st1" d="M21.6,18.2L13,11.8v-0.9c1.6-0.5,2.8-2.2,2.4-4.1c-0.3-1.3-1.3-2.4-2.6-2.7c-2.3-0.5-4.3,1.2-4.3,3.4h2
		C10.5,6.7,11.2,6,12,6s1.5,0.7,1.5,1.5C13.5,8.3,12.8,9,12,9c-0.5,0-1,0.4-1,1v1.8l-8.6,6.5C1.6,18.8,2,20,3,20h9h9
		C22,20,22.4,18.8,21.6,18.2z M6,18l6-4.5l6,4.5H6z"/>
</g>
</svg>
