<?xml version="1.0" encoding="utf-8"?>
<!-- Generator: Adobe Illustrator 25.0.0, SVG Export Plug-In . SVG Version: 6.00 Build 0)  -->
<svg version="1.1" id="Layer_1" xmlns="http://www.w3.org/2000/svg" xmlns:xlink="http://www.w3.org/1999/xlink" x="0px" y="0px"
	 viewBox="0 0 24 24" style="enable-background:new 0 0 24 24;" xml:space="preserve">
<style type="text/css">
	.st0{fill:none;}
	.st1{fill:#0000A4;}
</style>
<path class="st0" d="M0,0h24v24H0V0z"/>
<circle class="st1" cx="14.5" cy="10.5" r="1.2"/>
<circle class="st1" cx="9.5" cy="10.5" r="1.2"/>
<path class="st1" d="M22.9,11.3c-0.2-1.5-1.4-2.7-2.8-3.2c-0.5-1.1-1.3-2.1-2.2-2.9C16.4,3.8,14.3,3,12,3S7.6,3.8,6.1,5.3
	C5.1,6.1,4.4,7.1,3.9,8.2c-1.5,0.4-2.6,1.6-2.8,3.2C1,11.6,1,11.8,1,12s0,0.4,0.1,0.7c0.2,1.5,1.4,2.7,2.8,3.2
	c0.5,1.1,1.3,2.1,2.2,2.9c1.6,1.4,3.7,2.3,6,2.3s4.4-0.9,6-2.3c0.9-0.8,1.6-1.8,2.2-2.9c1.4-0.4,2.5-1.6,2.8-3.2
	c0-0.2,0.1-0.4,0.1-0.7S23,11.5,22.9,11.3z M19,14c-0.1,0-0.2,0-0.3,0c-0.2,0.7-0.5,1.3-0.9,1.9C16.6,17.7,14.4,19,12,19
	s-4.6-1.3-5.8-3.2c-0.4-0.6-0.7-1.2-0.9-1.9c-0.1,0-0.2,0-0.3,0c-1.1,0-2-0.9-2-2s0.9-2,2-2c0.1,0,0.2,0,0.3,0
	c0.2-0.7,0.5-1.3,0.9-1.9C7.4,6.3,9.6,5,12,5s4.6,1.3,5.9,3.2c0.4,0.6,0.7,1.2,0.9,1.9c0.1,0,0.2,0,0.3,0c1.1,0,2,0.9,2,2
	S20.1,14,19,14z M12,17c2,0,3.7-1.2,4.5-3h-9C8.3,15.8,10,17,12,17z"/>
</svg>
