<?xml version="1.0" encoding="utf-8"?>
<!-- Generator: Adobe Illustrator 25.0.0, SVG Export Plug-In . SVG Version: 6.00 Build 0)  -->
<svg version="1.1" id="Layer_1" xmlns="http://www.w3.org/2000/svg" xmlns:xlink="http://www.w3.org/1999/xlink" x="0px" y="0px"
	 viewBox="0 0 24 24" style="enable-background:new 0 0 24 24;" xml:space="preserve">
<style type="text/css">
	.st0{fill:none;}
	.st1{fill:#0000A4;}
</style>
<g>
	<rect y="0" class="st0" width="24" height="24"/>
</g>
<g>
	<g>
		<path class="st1" d="M3,14c0,1.3,0.8,2.4,2,2.8V20H3v2h6v-2H7v-3.2c1.2-0.4,2-1.5,2-2.8V6H3V14z M5,8h2v3H5V8z M5,13h2v1
			c0,0.6-0.4,1-1,1s-1-0.4-1-1V13z"/>
		<path class="st1" d="M20.6,8.5l-1-0.3c-0.4-0.1-0.7-0.5-0.7-1V3c0-0.5-0.5-1-1-1h-3c-0.6,0-1,0.5-1,1v4.3c0,0.4-0.3,0.8-0.7,1
			l-1,0.3c-0.8,0.3-1.4,1-1.4,1.9V20c0,1.1,0.9,2,2,2h7c1.1,0,2-0.9,2-2v-9.6C22,9.6,21.5,8.8,20.6,8.5z M16,4h1v1h-1V4z M20,20h-7
			v-2h7V20z M20,16h-7v-2h7V16z M20,12h-7v-1.6l0.9-0.3C15.2,9.7,16,8.6,16,7.3V7h1v0.3c0,1.3,0.8,2.4,2,2.8l1,0.3V12z"/>
	</g>
</g>
</svg>
