<?xml version="1.0" encoding="utf-8"?>
<!-- Generator: Adobe Illustrator 25.0.0, SVG Export Plug-In . SVG Version: 6.00 Build 0)  -->
<svg version="1.1" id="Layer_1" xmlns="http://www.w3.org/2000/svg" xmlns:xlink="http://www.w3.org/1999/xlink" x="0px" y="0px"
	 viewBox="0 0 24 24" style="enable-background:new 0 0 24 24;" xml:space="preserve">
<style type="text/css">
	.st0{fill:none;}
	.st1{fill:#0000A4;}
</style>
<path class="st0" d="M0,0h24v24H0V0z"/>
<path class="st1" d="M18.9,5c-0.2-0.6-0.8-1-1.4-1h-11C5.8,4,5.3,4.4,5.1,5L3,11v8c0,0.5,0.5,1,1,1h1c0.6,0,1-0.5,1-1v-1h12v1
	c0,0.5,0.5,1,1,1h1c0.5,0,1-0.5,1-1v-8L18.9,5z M6.8,6h10.3l1,3H5.8L6.8,6z M19,16H5v-4.7L5.1,11h13.8l0.1,0.3V16z"/>
<circle class="st1" cx="7.5" cy="13.5" r="1.5"/>
<circle class="st1" cx="16.5" cy="13.5" r="1.5"/>
</svg>
