<?xml version="1.0" encoding="utf-8"?>
<!-- Generator: Adobe Illustrator 25.0.0, SVG Export Plug-In . SVG Version: 6.00 Build 0)  -->
<svg version="1.1" id="Layer_1" xmlns="http://www.w3.org/2000/svg" xmlns:xlink="http://www.w3.org/1999/xlink" x="0px" y="0px"
	 viewBox="0 0 24 24" style="enable-background:new 0 0 24 24;" xml:space="preserve">
<style type="text/css">
	.st0{display:none;}
	.st1{display:inline;fill:none;}
	.st2{fill:#0000A4;}
</style>
<g class="st0">
	<rect y="0" class="st1" width="24" height="24"/>
</g>
<g>
	<g>
		<path class="st2" d="M18.8,10.1l-1.4-4C17,4.8,15.9,4,14.6,4H9.4C8.1,4,7,4.8,6.6,6.1L5.8,8.4L4.4,7l0.3-0.3c0.4-0.4,0.4-1,0-1.4
			s-1-0.4-1.4,0l-2,2c-0.4,0.4-0.4,1,0,1.4s1,0.4,1.4,0L3,8.4l1.8,1.8C3.2,10.7,2,12.2,2,14c0,1.5,0.8,2.8,2.1,3.5
			C4.3,18.9,5.5,20,7,20c1.3,0,2.4-0.8,2.8-2h4.4c0.4,1.2,1.5,2,2.8,2c1.5,0,2.7-1.1,3-2.5c1.2-0.7,2-2,2-3.5
			C22,12.1,20.6,10.4,18.8,10.1z M13,6h1.6c0.4,0,0.8,0.3,0.9,0.7l1.1,3.3H13V6z M8.5,6.7C8.6,6.3,9,6,9.4,6H11v4H7.4l0,0L8.5,6.7z
			 M7,18c-0.6,0-1-0.5-1-1s0.4-1,1-1s1,0.5,1,1S7.6,18,7,18z M17,18c-0.5,0-1-0.5-1-1s0.5-1,1-1s1,0.5,1,1S17.5,18,17,18z
			 M19.5,15.3C19,14.5,18,14,17,14c-1.3,0-2.4,0.8-2.8,2H9.8c-0.4-1.2-1.5-2-2.8-2c-1,0-1.9,0.5-2.5,1.3C4.2,15,4,14.5,4,14
			c0-1.1,0.9-2,2-2h12c1.1,0,2,0.9,2,2C20,14.5,19.8,15,19.5,15.3z"/>
	</g>
</g>
</svg>
